# xmcd CD database file
#
# Track frame offsets:
#	183
#	18403
#	37580
#	55308
#	73508
#	88268
#	102850
#	115885
#	133860
#	147883
#	162258
#	178350
#	197855
#	213493
#	229675
#	248320
#	263573
#	279280
#	292168
#	307988
#
# Disc length: 4335 seconds
#
# Revision: 0
# Processed by: cddbd v1.5.1PL0 Copyright (c) Steve Scherf et al.
# Submitted via: Feurio! 1.66 - http://www.feurio.com
#
DISCID=1f10ed14
DTITLE=Interpret - Schlager Gold 1
DYEAR=1900
DGENRE=
TTITLE0=Grichischer Wein
TTITLE1=Die kleine Kneipe
TTITLE2=Goodbey My Love Goodbey
TTITLE3=Ich hab`die Liebe gesehen
TTITLE4=Der Junge mit der Mundharmonika
TTITLE5=Adios My Darling
TTITLE6=Morgen beginnt die Welt
TTITLE7=Sand in deinen Augen
TTITLE8=Zigeunerjunge
TTITLE9=Liebeslied jener Sommernacht
TTITLE10=Hello Again
TTITLE11=Du entschuldige i kenn di
TTITLE12=Adios Amor
TTITLE13=Manchmal möchte ich schon mit Dir
TTITLE14=Die Fischer von San Juan
TTITLE15=Schönes Mädchen aus Arcadia
TTITLE16=Dann kamst Du
TTITLE17=Meine Liebe zu Dir
TTITLE18=Wunder gibt es immer Wieder
TTITLE19=Jenseits von Eden
EXTD=
EXTT0=
EXTT1=
EXTT2=
EXTT3=
EXTT4=
EXTT5=
EXTT6=
EXTT7=
EXTT8=
EXTT9=
EXTT10=
EXTT11=
EXTT12=
EXTT13=
EXTT14=
EXTT15=
EXTT16=
EXTT17=
EXTT18=
EXTT19=
PLAYORDER=
